<svg width="181" height="46" viewBox="0 0 181 46" fill="none" xmlns="http://www.w3.org/2000/svg">
    <path d="M61.2248 16.2065V31.5098H57.399V19.866H51.2444V31.5098H47.4186V16.2065H61.2248ZM68.2241 23.8581C68.2241 25.1223 68.59 26.1314 69.3219 26.8855C70.0538 27.6396 70.9632 28.0166 72.0499 28.0166C73.1367 28.0166 74.046 27.6396 74.7779 26.8855C75.5098 26.1314 75.8757 25.1223 75.8757 23.8581C75.8757 22.5939 75.5098 21.5848 74.7779 20.8307C74.046 20.0767 73.1367 19.6996 72.0499 19.6996C70.9632 19.6996 70.0538 20.0767 69.3219 20.8307C68.59 21.5848 68.2241 22.5939 68.2241 23.8581ZM79.7016 23.8581C79.7016 24.9449 79.4909 25.9651 79.0695 26.9188C78.6702 27.8503 78.1158 28.6709 77.4061 29.3806C76.7185 30.0903 75.909 30.6559 74.9775 31.0773C74.0682 31.4765 73.0923 31.6761 72.0499 31.6761C71.0075 31.6761 70.0206 31.4765 69.0891 31.0773C68.1797 30.6559 67.3702 30.0903 66.6605 29.3806C65.973 28.6709 65.4185 27.8503 64.9971 26.9188C64.5979 25.9651 64.3983 24.9449 64.3983 23.8581C64.3983 22.7714 64.5979 21.7622 64.9971 20.8307C65.4185 19.8771 65.973 19.0454 66.6605 18.3356C67.3702 17.6259 68.1797 17.0715 69.0891 16.6722C70.0206 16.2508 71.0075 16.0401 72.0499 16.0401C73.0923 16.0401 74.0682 16.2508 74.9775 16.6722C75.909 17.0715 76.7185 17.6259 77.4061 18.3356C78.1158 19.0454 78.6702 19.8771 79.0695 20.8307C79.4909 21.7622 79.7016 22.7714 79.7016 23.8581Z" fill="#009B47"/>
    <path d="M93.3258 23.5254C93.7251 23.7472 94.0799 24.0245 94.3904 24.3571C94.6566 24.6676 94.9005 25.0558 95.1223 25.5215C95.3663 25.9651 95.4883 26.5196 95.4883 27.1849C95.4883 27.7616 95.3663 28.316 95.1223 28.8483C94.9005 29.3584 94.5789 29.8131 94.1575 30.2123C93.7361 30.6115 93.226 30.9331 92.6272 31.1771C92.0506 31.3989 91.4185 31.5098 90.7309 31.5098H82.8464V16.2065H90.2319C90.9638 16.2065 91.6181 16.3174 92.1947 16.5392C92.7935 16.7388 93.2926 17.0271 93.6918 17.4041C94.1132 17.7812 94.4348 18.2247 94.6566 18.7349C94.8783 19.245 94.9892 19.7883 94.9892 20.365C94.9892 20.9195 94.9005 21.3963 94.7231 21.7955C94.5457 22.1725 94.3571 22.4941 94.1575 22.7603C93.9136 23.0708 93.6363 23.3258 93.3258 23.5254ZM86.6722 19.2006V22.5274H89.5C90.0101 22.5274 90.4093 22.3832 90.6977 22.0949C91.0082 21.7844 91.1634 21.3741 91.1634 20.864C91.1634 20.3539 91.0082 19.9547 90.6977 19.6664C90.4093 19.3559 90.0101 19.2006 89.5 19.2006H86.6722ZM89.999 28.5156C90.5091 28.5156 90.9084 28.3715 91.1967 28.0832C91.5072 27.7727 91.6624 27.3624 91.6624 26.8522C91.6624 26.3421 91.5072 25.9429 91.1967 25.6546C90.9084 25.3441 90.5091 25.1888 89.999 25.1888H86.6722V28.5156H89.999ZM101.638 23.8581C101.638 25.1223 102.004 26.1314 102.735 26.8855C103.467 27.6396 104.377 28.0166 105.463 28.0166C106.55 28.0166 107.46 27.6396 108.191 26.8855C108.923 26.1314 109.289 25.1223 109.289 23.8581C109.289 22.5939 108.923 21.5848 108.191 20.8307C107.46 20.0767 106.55 19.6996 105.463 19.6996C104.377 19.6996 103.467 20.0767 102.735 20.8307C102.004 21.5848 101.638 22.5939 101.638 23.8581ZM113.115 23.8581C113.115 24.9449 112.904 25.9651 112.483 26.9188C112.084 27.8503 111.529 28.6709 110.82 29.3806C110.132 30.0903 109.323 30.6559 108.391 31.0773C107.482 31.4765 106.506 31.6761 105.463 31.6761C104.421 31.6761 103.434 31.4765 102.503 31.0773C101.593 30.6559 100.784 30.0903 100.074 29.3806C99.3865 28.6709 98.832 27.8503 98.4106 26.9188C98.0114 25.9651 97.8118 24.9449 97.8118 23.8581C97.8118 22.7714 98.0114 21.7622 98.4106 20.8307C98.832 19.8771 99.3865 19.0454 100.074 18.3356C100.784 17.6259 101.593 17.0715 102.503 16.6722C103.434 16.2508 104.421 16.0401 105.463 16.0401C106.506 16.0401 107.482 16.2508 108.391 16.6722C109.323 17.0715 110.132 17.6259 110.82 18.3356C111.529 19.0454 112.084 19.8771 112.483 20.8307C112.904 21.7622 113.115 22.7714 113.115 23.8581ZM129.9 26.8522C129.7 27.4289 129.39 28.0055 128.968 28.5822C128.569 29.1588 128.07 29.68 127.471 30.1458C126.895 30.5894 126.229 30.9553 125.475 31.2436C124.743 31.5319 123.945 31.6761 123.08 31.6761C122.037 31.6761 121.051 31.4765 120.119 31.0773C119.21 30.6559 118.4 30.0903 117.69 29.3806C117.003 28.6709 116.448 27.8503 116.027 26.9188C115.628 25.9651 115.428 24.9449 115.428 23.8581C115.428 22.7714 115.628 21.7622 116.027 20.8307C116.448 19.8771 117.003 19.0454 117.69 18.3356C118.4 17.6259 119.21 17.0715 120.119 16.6722C121.051 16.2508 122.037 16.0401 123.08 16.0401C124.078 16.0401 125.021 16.2287 125.908 16.6057C126.795 16.9827 127.571 17.515 128.236 18.2026C128.902 18.8901 129.423 19.7218 129.8 20.6977C130.199 21.6514 130.399 22.7048 130.399 23.8581C130.399 24.0356 130.388 24.213 130.366 24.3904C130.343 24.5457 130.321 24.7009 130.299 24.8562C130.277 25.0336 130.255 25.1999 130.233 25.3552H119.587C119.764 26.1093 120.141 26.7414 120.718 27.2515C121.295 27.7616 122.082 28.0166 123.08 28.0166C123.59 28.0166 124.011 27.9612 124.344 27.8503C124.699 27.7394 124.998 27.6063 125.242 27.4511C125.508 27.2736 125.73 27.074 125.908 26.8522H129.9ZM123.08 19.6996C122.082 19.6996 121.261 19.988 120.618 20.5646C119.997 21.1412 119.598 21.851 119.42 22.6937H126.739C126.562 21.851 126.152 21.1412 125.508 20.5646C124.887 19.988 124.078 19.6996 123.08 19.6996ZM147.358 16.2065V31.5098H143.532V25.5215H137.377V31.5098H133.552V16.2065H137.377V21.862H143.532V16.2065H147.358ZM160.512 31.5098L155.189 24.5235V31.5098H151.363V16.2065H155.189V22.5274L159.846 16.2065H164.171L158.682 23.5254L164.836 31.5098H160.512ZM179.988 26.8522C179.788 27.4289 179.478 28.0055 179.056 28.5822C178.657 29.1588 178.158 29.68 177.559 30.1458C176.982 30.5894 176.317 30.9553 175.563 31.2436C174.831 31.5319 174.033 31.6761 173.168 31.6761C172.125 31.6761 171.138 31.4765 170.207 31.0773C169.298 30.6559 168.488 30.0903 167.778 29.3806C167.091 28.6709 166.536 27.8503 166.115 26.9188C165.716 25.9651 165.516 24.9449 165.516 23.8581C165.516 22.7714 165.716 21.7622 166.115 20.8307C166.536 19.8771 167.091 19.0454 167.778 18.3356C168.488 17.6259 169.298 17.0715 170.207 16.6722C171.138 16.2508 172.125 16.0401 173.168 16.0401C174.166 16.0401 175.108 16.2287 175.995 16.6057C176.883 16.9827 177.659 17.515 178.324 18.2026C178.99 18.8901 179.511 19.7218 179.888 20.6977C180.287 21.6514 180.487 22.7048 180.487 23.8581C180.487 24.0356 180.476 24.213 180.453 24.3904C180.431 24.5457 180.409 24.7009 180.387 24.8562C180.365 25.0336 180.343 25.1999 180.32 25.3552H169.675C169.852 26.1093 170.229 26.7414 170.806 27.2515C171.382 27.7616 172.17 28.0166 173.168 28.0166C173.678 28.0166 174.099 27.9612 174.432 27.8503C174.787 27.7394 175.086 27.6063 175.33 27.4511C175.596 27.2736 175.818 27.074 175.995 26.8522H179.988ZM173.168 19.6996C172.17 19.6996 171.349 19.988 170.706 20.5646C170.085 21.1412 169.686 21.851 169.508 22.6937H176.827C176.65 21.851 176.239 21.1412 175.596 20.5646C174.975 19.988 174.166 19.6996 173.168 19.6996Z" fill="black"/>
    <path d="M2.96985 32.0597C1.32965 30.4195 1.32965 27.7602 2.96985 26.12L15.9099 13.1799C18.6045 10.4853 22.9734 10.4853 25.668 13.1799C28.3626 15.8746 28.3626 20.2434 25.668 22.938L12.7279 35.8781C11.0877 37.5183 8.42843 37.5183 6.78823 35.8781L2.96985 32.0597Z" fill="url(#paint0_linear_1741_6828)"/>
    <g clip-path="url(#clip0_1741_6828)">
        <path d="M34.7711 35.8954C33.1309 37.5356 30.4716 37.5356 28.8314 35.8954L15.8914 22.9553C13.1967 20.2607 13.1967 15.8919 15.8914 13.1973C18.586 10.5026 22.9548 10.5026 25.6494 13.1973L38.5895 26.1373C40.2297 27.7775 40.2297 30.4368 38.5895 32.077L34.7711 35.8954Z" fill="#009B47"/>
        <path d="M28.5859 25.8931L31.3588 27.037L33.6425 25.0922L33.4116 28.0829L35.9668 29.6539L33.0512 30.3584L32.3467 33.2741L30.7756 30.7188L27.785 30.9498L29.7297 28.6661L28.5859 25.8931Z" fill="white"/>
        <circle cx="20.3775" cy="17.6836" r="2.75046" transform="rotate(-45 20.3775 17.6836)" fill="white"/>
    </g>
    <defs>
        <linearGradient id="paint0_linear_1741_6828" x1="25.668" y1="13.1799" x2="4.87904" y2="33.9689" gradientUnits="userSpaceOnUse">
            <stop stop-color="#085C2E"/>
            <stop offset="1" stop-color="#009B47"/>
        </linearGradient>
        <clipPath id="clip0_1741_6828">
            <path d="M34.7711 35.8954C33.1309 37.5356 30.4716 37.5356 28.8314 35.8954L15.8914 22.9553C13.1967 20.2607 13.1967 15.8919 15.8914 13.1973C18.586 10.5026 22.9548 10.5026 25.6494 13.1973L38.5895 26.1373C40.2297 27.7775 40.2297 30.4368 38.5895 32.077L34.7711 35.8954Z" fill="white"/>
        </clipPath>
    </defs>
</svg>
