<svg width="181" height="46" viewBox="0 0 181 46" fill="none" xmlns="http://www.w3.org/2000/svg">
    <path d="M61.2248 16.2045V31.5078H57.399V19.864H51.2444V31.5078H47.4186V16.2045H61.2248ZM68.2241 23.8562C68.2241 25.1204 68.59 26.1295 69.3219 26.8836C70.0538 27.6376 70.9632 28.0147 72.0499 28.0147C73.1367 28.0147 74.046 27.6376 74.7779 26.8836C75.5098 26.1295 75.8757 25.1204 75.8757 23.8562C75.8757 22.592 75.5098 21.5829 74.7779 20.8288C74.046 20.0747 73.1367 19.6977 72.0499 19.6977C70.9632 19.6977 70.0538 20.0747 69.3219 20.8288C68.59 21.5829 68.2241 22.592 68.2241 23.8562ZM79.7016 23.8562C79.7016 24.9429 79.4909 25.9631 79.0695 26.9168C78.6702 27.8483 78.1158 28.6689 77.4061 29.3787C76.7185 30.0884 75.909 30.6539 74.9775 31.0753C74.0682 31.4745 73.0923 31.6742 72.0499 31.6742C71.0075 31.6742 70.0206 31.4745 69.0891 31.0753C68.1797 30.6539 67.3702 30.0884 66.6605 29.3787C65.973 28.6689 65.4185 27.8483 64.9971 26.9168C64.5979 25.9631 64.3983 24.9429 64.3983 23.8562C64.3983 22.7694 64.5979 21.7603 64.9971 20.8288C65.4185 19.8751 65.973 19.0434 66.6605 18.3337C67.3702 17.624 68.1797 17.0695 69.0891 16.6703C70.0206 16.2489 71.0075 16.0382 72.0499 16.0382C73.0923 16.0382 74.0682 16.2489 74.9775 16.6703C75.909 17.0695 76.7185 17.624 77.4061 18.3337C78.1158 19.0434 78.6702 19.8751 79.0695 20.8288C79.4909 21.7603 79.7016 22.7694 79.7016 23.8562ZM93.3258 23.5235C93.7251 23.7453 94.0799 24.0225 94.3904 24.3552C94.6566 24.6657 94.9005 25.0538 95.1223 25.5196C95.3663 25.9631 95.4883 26.5176 95.4883 27.183C95.4883 27.7596 95.3663 28.3141 95.1223 28.8464C94.9005 29.3565 94.5789 29.8111 94.1575 30.2104C93.7361 30.6096 93.226 30.9312 92.6272 31.1751C92.0506 31.3969 91.4185 31.5078 90.7309 31.5078H82.8464V16.2045H90.2319C90.9638 16.2045 91.6181 16.3154 92.1947 16.5372C92.7935 16.7368 93.2926 17.0251 93.6918 17.4022C94.1132 17.7792 94.4348 18.2228 94.6566 18.7329C94.8783 19.243 94.9892 19.7864 94.9892 20.363C94.9892 20.9175 94.9005 21.3943 94.7231 21.7936C94.5457 22.1706 94.3571 22.4922 94.1575 22.7583C93.9136 23.0688 93.6363 23.3239 93.3258 23.5235ZM86.6722 19.1987V22.5255H89.5C90.0101 22.5255 90.4093 22.3813 90.6977 22.093C91.0082 21.7825 91.1634 21.3722 91.1634 20.8621C91.1634 20.3519 91.0082 19.9527 90.6977 19.6644C90.4093 19.3539 90.0101 19.1987 89.5 19.1987H86.6722ZM89.999 28.5137C90.5091 28.5137 90.9084 28.3695 91.1967 28.0812C91.5072 27.7707 91.6624 27.3604 91.6624 26.8503C91.6624 26.3402 91.5072 25.941 91.1967 25.6526C90.9084 25.3421 90.5091 25.1869 89.999 25.1869H86.6722V28.5137H89.999ZM101.638 23.8562C101.638 25.1204 102.004 26.1295 102.735 26.8836C103.467 27.6376 104.377 28.0147 105.463 28.0147C106.55 28.0147 107.46 27.6376 108.191 26.8836C108.923 26.1295 109.289 25.1204 109.289 23.8562C109.289 22.592 108.923 21.5829 108.191 20.8288C107.46 20.0747 106.55 19.6977 105.463 19.6977C104.377 19.6977 103.467 20.0747 102.735 20.8288C102.004 21.5829 101.638 22.592 101.638 23.8562ZM113.115 23.8562C113.115 24.9429 112.904 25.9631 112.483 26.9168C112.084 27.8483 111.529 28.6689 110.82 29.3787C110.132 30.0884 109.323 30.6539 108.391 31.0753C107.482 31.4745 106.506 31.6742 105.463 31.6742C104.421 31.6742 103.434 31.4745 102.503 31.0753C101.593 30.6539 100.784 30.0884 100.074 29.3787C99.3865 28.6689 98.832 27.8483 98.4106 26.9168C98.0114 25.9631 97.8118 24.9429 97.8118 23.8562C97.8118 22.7694 98.0114 21.7603 98.4106 20.8288C98.832 19.8751 99.3865 19.0434 100.074 18.3337C100.784 17.624 101.593 17.0695 102.503 16.6703C103.434 16.2489 104.421 16.0382 105.463 16.0382C106.506 16.0382 107.482 16.2489 108.391 16.6703C109.323 17.0695 110.132 17.624 110.82 18.3337C111.529 19.0434 112.084 19.8751 112.483 20.8288C112.904 21.7603 113.115 22.7694 113.115 23.8562ZM129.9 26.8503C129.7 27.4269 129.39 28.0036 128.968 28.5802C128.569 29.1569 128.07 29.6781 127.471 30.1438C126.895 30.5874 126.229 30.9533 125.475 31.2417C124.743 31.53 123.945 31.6742 123.08 31.6742C122.037 31.6742 121.051 31.4745 120.119 31.0753C119.21 30.6539 118.4 30.0884 117.69 29.3787C117.003 28.6689 116.448 27.8483 116.027 26.9168C115.628 25.9631 115.428 24.9429 115.428 23.8562C115.428 22.7694 115.628 21.7603 116.027 20.8288C116.448 19.8751 117.003 19.0434 117.69 18.3337C118.4 17.624 119.21 17.0695 120.119 16.6703C121.051 16.2489 122.037 16.0382 123.08 16.0382C124.078 16.0382 125.021 16.2267 125.908 16.6038C126.795 16.9808 127.571 17.5131 128.236 18.2006C128.902 18.8882 129.423 19.7199 129.8 20.6957C130.199 21.6494 130.399 22.7029 130.399 23.8562C130.399 24.0336 130.388 24.211 130.366 24.3885C130.343 24.5437 130.321 24.699 130.299 24.8542C130.277 25.0316 130.255 25.198 130.233 25.3532H119.587C119.764 26.1073 120.141 26.7394 120.718 27.2495C121.295 27.7596 122.082 28.0147 123.08 28.0147C123.59 28.0147 124.011 27.9592 124.344 27.8483C124.699 27.7374 124.998 27.6044 125.242 27.4491C125.508 27.2717 125.73 27.0721 125.908 26.8503H129.9ZM123.08 19.6977C122.082 19.6977 121.261 19.986 120.618 20.5626C119.997 21.1393 119.598 21.849 119.42 22.6918H126.739C126.562 21.849 126.152 21.1393 125.508 20.5626C124.887 19.986 124.078 19.6977 123.08 19.6977ZM147.358 16.2045V31.5078H143.532V25.5196H137.377V31.5078H133.552V16.2045H137.377V21.8601H143.532V16.2045H147.358ZM160.512 31.5078L155.189 24.5215V31.5078H151.363V16.2045H155.189V22.5255L159.846 16.2045H164.171L158.682 23.5235L164.836 31.5078H160.512ZM179.988 26.8503C179.788 27.4269 179.478 28.0036 179.056 28.5802C178.657 29.1569 178.158 29.6781 177.559 30.1438C176.982 30.5874 176.317 30.9533 175.563 31.2417C174.831 31.53 174.033 31.6742 173.168 31.6742C172.125 31.6742 171.138 31.4745 170.207 31.0753C169.298 30.6539 168.488 30.0884 167.778 29.3787C167.091 28.6689 166.536 27.8483 166.115 26.9168C165.716 25.9631 165.516 24.9429 165.516 23.8562C165.516 22.7694 165.716 21.7603 166.115 20.8288C166.536 19.8751 167.091 19.0434 167.778 18.3337C168.488 17.624 169.298 17.0695 170.207 16.6703C171.138 16.2489 172.125 16.0382 173.168 16.0382C174.166 16.0382 175.108 16.2267 175.995 16.6038C176.883 16.9808 177.659 17.5131 178.324 18.2006C178.99 18.8882 179.511 19.7199 179.888 20.6957C180.287 21.6494 180.487 22.7029 180.487 23.8562C180.487 24.0336 180.476 24.211 180.453 24.3885C180.431 24.5437 180.409 24.699 180.387 24.8542C180.365 25.0316 180.343 25.198 180.32 25.3532H169.675C169.852 26.1073 170.229 26.7394 170.806 27.2495C171.382 27.7596 172.17 28.0147 173.168 28.0147C173.678 28.0147 174.099 27.9592 174.432 27.8483C174.787 27.7374 175.086 27.6044 175.33 27.4491C175.596 27.2717 175.818 27.0721 175.995 26.8503H179.988ZM173.168 19.6977C172.17 19.6977 171.349 19.986 170.706 20.5626C170.085 21.1393 169.686 21.849 169.508 22.6918H176.827C176.65 21.849 176.239 21.1393 175.596 20.5626C174.975 19.986 174.166 19.6977 173.168 19.6977Z" fill="#173B5E" fill-opacity="0.35"/>
    <path d="M2.96985 32.0597C1.32965 30.4195 1.32965 27.7602 2.96985 26.12L15.9099 13.1799C18.6045 10.4853 22.9734 10.4853 25.668 13.1799C28.3626 15.8746 28.3626 20.2434 25.668 22.938L12.7279 35.8781C11.0877 37.5183 8.42843 37.5183 6.78823 35.8781L2.96985 32.0597Z" fill="url(#paint0_linear_1741_5433)" fill-opacity="0.35"/>
    <g clip-path="url(#clip0_1741_5433)">
        <path d="M34.7711 35.8954C33.1309 37.5356 30.4716 37.5356 28.8314 35.8954L15.8914 22.9553C13.1967 20.2607 13.1967 15.8919 15.8914 13.1973C18.586 10.5026 22.9548 10.5026 25.6494 13.1973L38.5895 26.1373C40.2297 27.7775 40.2297 30.4368 38.5895 32.077L34.7711 35.8954Z" fill="#AEBBC7"/>
        <path d="M28.5859 25.8912L31.3588 27.035L33.6425 25.0903L33.4116 28.081L35.9668 29.652L33.0512 30.3565L32.3467 33.2722L30.7756 30.7169L27.785 30.9479L29.7297 28.6641L28.5859 25.8912Z" fill="white"/>
        <circle cx="20.3766" cy="17.6816" r="2.75046" transform="rotate(-45 20.3766 17.6816)" fill="white"/>
    </g>
    <defs>
        <linearGradient id="paint0_linear_1741_5433" x1="25" y1="12.501" x2="-2.5" y2="39.001" gradientUnits="userSpaceOnUse">
            <stop stop-color="#0F3862"/>
            <stop offset="1" stop-color="#44719D" stop-opacity="0.45"/>
        </linearGradient>
        <clipPath id="clip0_1741_5433">
            <path d="M34.7711 35.8954C33.1309 37.5356 30.4716 37.5356 28.8314 35.8954L15.8914 22.9553C13.1967 20.2607 13.1967 15.8919 15.8914 13.1973C18.586 10.5026 22.9548 10.5026 25.6494 13.1973L38.5895 26.1373C40.2297 27.7775 40.2297 30.4368 38.5895 32.077L34.7711 35.8954Z" fill="white"/>
        </clipPath>
    </defs>
</svg>
